<?xml version="1.0" encoding="utf-8"?>
<!-- Generator: Adobe Illustrator 16.0.0, SVG Export Plug-In . SVG Version: 6.00 Build 0)  -->
<!DOCTYPE svg PUBLIC "-//W3C//DTD SVG 1.1//EN" "http://www.w3.org/Graphics/SVG/1.1/DTD/svg11.dtd">
<svg version="1.1" id="Layer_1" xmlns="http://www.w3.org/2000/svg" xmlns:xlink="http://www.w3.org/1999/xlink" x="0px" y="0px"
	 width="50px" height="50px" viewBox="0 0 50 50" enable-background="new 0 0 50 50" xml:space="preserve">
<g>
	<path fill-rule="evenodd" clip-rule="evenodd" fill="#98C764" d="M26.006,36.598c0-0.91,0.028-1.688-0.007-2.463
		c-0.06-1.292-0.735-1.927-2.037-1.932c-2.516-0.01-5.032-0.001-7.548-0.004c-2.705-0.002-4.082-1.363-4.099-4.05
		c-0.004-0.597-0.018-1.193,0.004-1.79c0.077-2.103,1.291-3.29,3.41-3.3c3.06-0.015,6.121-0.009,9.182,0
		c0.6,0.001,1.034-0.127,0.971-0.938c-0.308,0-0.609,0-0.912,0c-5.862,0-11.724,0.004-17.585-0.003c-1.702-0.002-3-0.839-3.487-2.21
		c-0.632-1.779,0.261-3.656,2.047-4.386c0.361-0.147,0.671-0.432,0.986-0.677c0.326-0.255,0.585-0.641,0.947-0.792
		c1.203-0.5,2.158-1.367,3.245-2.029c0.652-0.397,1.5-0.49,2.271-0.667c0.668-0.153,1.36-0.202,2.025-0.363
		c0.208-0.05,0.422-0.282,0.537-0.485c0.973-1.72,2.431-2.625,4.405-2.743c0.239-0.014,0.522-0.199,0.688-0.39
		c2.01-2.308,5.427-2.522,7.709-0.458c0.171,0.154,0.454,0.232,0.693,0.253c1.339,0.119,2.428,0.661,3.243,1.754
		c0.15,0.202,0.43,0.359,0.681,0.427c4.138,1.131,6.155,5.507,4.176,9.277c-1.126,2.147-2.989,3.332-5.444,3.456
		c-1.033,0.053-2.071,0.009-3.234,0.009c0,0.54,0.009,1.045-0.002,1.55c-0.029,1.436-0.792,2.204-2.228,2.208
		c-3.269,0.009-6.537,0.026-9.804-0.007c-1.502-0.015-1.654,0.766-1.421,1.988c0.128,0.671,0.66,0.835,1.304,0.831
		c3.035-0.017,6.07-0.015,9.104-0.001c0.594,0.003,1.195,0.045,1.78,0.145c1.758,0.298,2.962,1.311,3.578,2.976
		c0.164,0.442,0.37,0.598,0.833,0.58c0.907-0.034,1.815-0.008,2.724-0.011c1.111-0.002,1.219-0.125,1.138-1.337
		c-0.89-0.055-1.797-0.044-2.681-0.181c-1.719-0.266-2.803-1.65-2.756-3.401c0.043-1.595,1.261-2.903,2.894-3.166
		c0.247-0.04,0.561-0.24,0.67-0.454c0.35-0.685,0.867-1.035,1.616-0.931c0.467,0.064,0.734-0.1,1.052-0.423
		c1.188-1.209,2.95-1.034,3.976,0.337c0.127,0.169,0.32,0.4,0.491,0.408c1.598,0.071,2.371,0.978,2.578,2.459
		c1.66,0.613,1.929,0.99,2.007,2.724c0.007,0.154,0.1,0.329,0.203,0.452c0.354,0.416,0.539,0.923,0.19,1.341
		c-0.278,0.332-0.772,0.661-1.182,0.677c-1.917,0.072-3.838,0.035-5.758,0.037c-0.334,0.001-0.669,0-1.105,0
		c0,0.516,0.007,0.975-0.001,1.433c-0.029,1.662-1.015,2.66-2.67,2.688c-1.192,0.02-2.385,0.019-3.578,0.028
		c-0.019,0.001-0.038,0.033-0.095,0.085c0,0.423,0,0.881,0,1.468c0.263,0,0.534,0,0.806,0c2.152,0,4.306,0.004,6.458-0.003
		c0.522-0.002,1.038,0.046,1.186,0.64c0.14,0.563,0.148,1.132-0.463,1.509c-0.133,0.082-0.223,0.308-0.247,0.479
		c-0.493,3.414-2.618,5.271-6.077,5.273c-6.666,0.005-13.332,0.006-19.999-0.001c-3.013-0.003-5.091-1.513-5.859-4.24
		c-0.083-0.295-0.075-0.613-0.146-0.912c-0.05-0.21-0.108-0.51-0.256-0.587c-0.775-0.4-0.566-1.114-0.406-1.637
		c0.082-0.267,0.75-0.498,1.154-0.5c5.706-0.032,11.413-0.021,17.119-0.021C25.304,36.598,25.609,36.598,26.006,36.598z"/>
</g>
</svg>
